<svg width="71" height="70" viewBox="0 0 71 70" fill="none" xmlns="http://www.w3.org/2000/svg">
<path d="M35.0042 1.09375C16.2738 1.09375 1.09799 16.2695 1.09799 35C1.09799 53.7305 16.2738 68.9062 35.0042 68.9062C53.7347 68.9062 68.9105 53.7305 68.9105 35C68.9105 16.2695 53.7347 1.09375 35.0042 1.09375ZM50.8636 41.0156H35.0042V50.709C35.0042 52.1719 33.2269 52.9102 32.2015 51.8711L16.5746 36.1621C15.932 35.5195 15.932 34.4941 16.5746 33.8516L32.2015 18.1289C33.2406 17.0898 35.0042 17.8281 35.0042 19.291V28.9844H50.8636C51.766 28.9844 52.5042 29.7227 52.5042 30.625V39.375C52.5042 40.2773 51.766 41.0156 50.8636 41.0156Z" fill="black"/>
</svg>
